<?xml version="1.0" standalone="no"?>
<!DOCTYPE svg PUBLIC "-//W3C//DTD SVG 20010904//EN"
 "http://www.w3.org/TR/2001/REC-SVG-20010904/DTD/svg10.dtd">
<svg version="1.0" xmlns="http://www.w3.org/2000/svg"
 width="700.000000pt" height="700.000000pt" viewBox="0 0 700.000000 700.000000"
 preserveAspectRatio="xMidYMid meet">
<metadata>
Created by potrace 1.14, written by Peter Selinger 2001-2017
</metadata>
<g transform="translate(0.000000,700.000000) scale(0.100000,-0.100000)"
fill="#000000" stroke="none">
<path d="M3498 6413 c-49 -31 -52 -52 -52 -395 0 -305 1 -319 21 -345 11 -16
36 -34 56 -42 32 -12 40 -11 74 5 21 11 43 30 50 44 9 18 13 112 13 354 l0
328 -34 34 c-39 39 -83 45 -128 17z"/>
<path d="M4120 6251 c-34 -8 -53 -21 -73 -51 -15 -21 -17 -57 -17 -283 0 -289
4 -307 66 -333 57 -24 122 5 142 65 5 14 8 139 8 278 -1 238 -2 253 -22 279
-25 34 -70 53 -104 45z"/>
<path d="M2908 6024 c-51 -27 -58 -56 -58 -245 0 -162 1 -175 22 -205 44 -64
142 -59 180 9 19 33 20 353 2 392 -25 54 -95 77 -146 49z"/>
<path d="M1928 5273 c-14 -9 -31 -27 -37 -40 -15 -33 -15 -617 0 -646 15 -29
50 -56 72 -57 19 0 19 0 19 -152 0 -122 -3 -138 -31 -138 -10 0 -31 -14 -45
-31 l-26 -31 0 -965 0 -965 -37 7 c-225 43 -413 12 -632 -102 -137 -72 -309
-214 -390 -323 -14 -19 -31 -41 -38 -48 -30 -31 -107 -168 -138 -244 -88 -216
-103 -399 -45 -578 50 -155 174 -288 321 -343 161 -61 368 -56 553 14 69 25
87 47 91 106 3 43 7 50 36 67 52 30 173 118 181 132 6 9 16 8 44 -6 59 -31 93
-17 162 63 23 26 45 46 49 45 4 -1 28 -30 52 -63 117 -158 324 -305 503 -356
24 -7 48 -14 53 -15 6 -2 48 -10 95 -18 118 -21 1666 -21 1781 0 314 57 552
219 717 487 23 38 42 71 42 74 0 3 6 19 14 36 31 68 58 156 70 227 l12 73 65
13 c99 20 184 51 305 109 285 138 517 389 624 677 19 53 43 147 56 223 10 57
11 1237 1 1315 -4 36 -9 81 -12 101 -14 125 -82 322 -156 449 -27 48 -138 187
-171 216 -105 89 -127 104 -224 152 -96 48 -185 77 -274 88 -25 3 -54 7 -65 9
-11 2 -48 4 -82 4 l-63 1 0 186 c0 202 -6 230 -57 253 -17 8 -515 11 -1696 11
-1540 -1 -1674 -2 -1699 -17z m3592 -1035 c169 -43 278 -191 311 -424 7 -51
11 -284 12 -654 0 -516 -2 -581 -17 -635 -38 -133 -159 -285 -285 -359 -70
-41 -126 -66 -147 -66 -12 0 -14 169 -14 1076 l0 1075 53 -2 c28 -1 68 -7 87
-11z"/>
</g>
</svg>
